<mxfile host="app.diagrams.net" modified="2022-06-22T05:27:51.673Z" agent="5.0 (Macintosh; Intel Mac OS X 10_15_7) AppleWebKit/605.1.15 (KHTML, like Gecko) Version/15.3 Safari/605.1.15" etag="ciovJ-38kkwk_x-vZ2xT" version="20.0.2" type="github">
  <diagram id="nhklYv_8QrPBKbGVrYiV" name="Page-1">
    <mxGraphModel dx="1285" dy="769" grid="1" gridSize="10" guides="1" tooltips="1" connect="1" arrows="1" fold="1" page="1" pageScale="1" pageWidth="827" pageHeight="1169" math="0" shadow="0">
      <root>
        <mxCell id="0" />
        <mxCell id="1" parent="0" />
        <mxCell id="lYBS7tri8tgWxixySMel-1" value="VPC" style="points=[[0,0],[0.25,0],[0.5,0],[0.75,0],[1,0],[1,0.25],[1,0.5],[1,0.75],[1,1],[0.75,1],[0.5,1],[0.25,1],[0,1],[0,0.75],[0,0.5],[0,0.25]];outlineConnect=0;gradientColor=none;html=1;whiteSpace=wrap;fontSize=12;fontStyle=0;container=1;pointerEvents=0;collapsible=0;recursiveResize=0;shape=mxgraph.aws4.group;grIcon=mxgraph.aws4.group_vpc;strokeColor=#248814;fillColor=none;verticalAlign=top;align=left;spacingLeft=30;fontColor=#AAB7B8;dashed=0;" parent="1" vertex="1">
          <mxGeometry x="20" y="50" width="780" height="710" as="geometry" />
        </mxCell>
        <mxCell id="lYBS7tri8tgWxixySMel-4" value="Availability Zone us-east-2a" style="fillColor=none;strokeColor=#147EBA;dashed=1;verticalAlign=top;fontStyle=0;fontColor=#147EBA;" parent="lYBS7tri8tgWxixySMel-1" vertex="1">
          <mxGeometry x="20" y="40" width="290" height="660" as="geometry" />
        </mxCell>
        <mxCell id="lYBS7tri8tgWxixySMel-3" value="Availability Zone us-east-2b" style="fillColor=none;strokeColor=#147EBA;dashed=1;verticalAlign=top;fontStyle=0;fontColor=#147EBA;" parent="lYBS7tri8tgWxixySMel-1" vertex="1">
          <mxGeometry x="470" y="40" width="290" height="660" as="geometry" />
        </mxCell>
        <mxCell id="lYBS7tri8tgWxixySMel-5" value="Public Web subnet AZ1" style="points=[[0,0],[0.25,0],[0.5,0],[0.75,0],[1,0],[1,0.25],[1,0.5],[1,0.75],[1,1],[0.75,1],[0.5,1],[0.25,1],[0,1],[0,0.75],[0,0.5],[0,0.25]];outlineConnect=0;gradientColor=none;html=1;whiteSpace=wrap;fontSize=12;fontStyle=0;container=1;pointerEvents=0;collapsible=0;recursiveResize=0;shape=mxgraph.aws4.group;grIcon=mxgraph.aws4.group_security_group;grStroke=0;strokeColor=#248814;fillColor=#E9F3E6;verticalAlign=top;align=left;spacingLeft=30;fontColor=#248814;dashed=0;" parent="lYBS7tri8tgWxixySMel-1" vertex="1">
          <mxGeometry x="30" y="90" width="260" height="130" as="geometry" />
        </mxCell>
        <mxCell id="lYBS7tri8tgWxixySMel-6" value="Public Web subnet AZ2" style="points=[[0,0],[0.25,0],[0.5,0],[0.75,0],[1,0],[1,0.25],[1,0.5],[1,0.75],[1,1],[0.75,1],[0.5,1],[0.25,1],[0,1],[0,0.75],[0,0.5],[0,0.25]];outlineConnect=0;gradientColor=none;html=1;whiteSpace=wrap;fontSize=12;fontStyle=0;container=1;pointerEvents=0;collapsible=0;recursiveResize=0;shape=mxgraph.aws4.group;grIcon=mxgraph.aws4.group_security_group;grStroke=0;strokeColor=#248814;fillColor=#E9F3E6;verticalAlign=top;align=left;spacingLeft=30;fontColor=#248814;dashed=0;" parent="lYBS7tri8tgWxixySMel-1" vertex="1">
          <mxGeometry x="485" y="90" width="260" height="130" as="geometry" />
        </mxCell>
        <mxCell id="lYBS7tri8tgWxixySMel-7" value="Private&amp;nbsp;Microservices Subnet AZ1" style="points=[[0,0],[0.25,0],[0.5,0],[0.75,0],[1,0],[1,0.25],[1,0.5],[1,0.75],[1,1],[0.75,1],[0.5,1],[0.25,1],[0,1],[0,0.75],[0,0.5],[0,0.25]];outlineConnect=0;gradientColor=none;html=1;whiteSpace=wrap;fontSize=12;fontStyle=0;container=1;pointerEvents=0;collapsible=0;recursiveResize=0;shape=mxgraph.aws4.group;grIcon=mxgraph.aws4.group_security_group;grStroke=0;strokeColor=#147EBA;fillColor=#E6F2F8;verticalAlign=top;align=left;spacingLeft=30;fontColor=#147EBA;dashed=0;" parent="lYBS7tri8tgWxixySMel-1" vertex="1">
          <mxGeometry x="30" y="250" width="260" height="130" as="geometry" />
        </mxCell>
        <mxCell id="lYBS7tri8tgWxixySMel-9" value="Private&amp;nbsp;Data Subnet AZ1" style="points=[[0,0],[0.25,0],[0.5,0],[0.75,0],[1,0],[1,0.25],[1,0.5],[1,0.75],[1,1],[0.75,1],[0.5,1],[0.25,1],[0,1],[0,0.75],[0,0.5],[0,0.25]];outlineConnect=0;gradientColor=none;html=1;whiteSpace=wrap;fontSize=12;fontStyle=0;container=1;pointerEvents=0;collapsible=0;recursiveResize=0;shape=mxgraph.aws4.group;grIcon=mxgraph.aws4.group_security_group;grStroke=0;strokeColor=#147EBA;fillColor=#E6F2F8;verticalAlign=top;align=left;spacingLeft=30;fontColor=#147EBA;dashed=0;" parent="lYBS7tri8tgWxixySMel-1" vertex="1">
          <mxGeometry x="30" y="547" width="260" height="130" as="geometry" />
        </mxCell>
        <mxCell id="lYBS7tri8tgWxixySMel-8" value="Private XDX Subnet AZ1" style="points=[[0,0],[0.25,0],[0.5,0],[0.75,0],[1,0],[1,0.25],[1,0.5],[1,0.75],[1,1],[0.75,1],[0.5,1],[0.25,1],[0,1],[0,0.75],[0,0.5],[0,0.25]];outlineConnect=0;gradientColor=none;html=1;whiteSpace=wrap;fontSize=12;fontStyle=0;container=1;pointerEvents=0;collapsible=0;recursiveResize=0;shape=mxgraph.aws4.group;grIcon=mxgraph.aws4.group_security_group;grStroke=0;strokeColor=#147EBA;fillColor=#E6F2F8;verticalAlign=top;align=left;spacingLeft=30;fontColor=#147EBA;dashed=0;" parent="lYBS7tri8tgWxixySMel-1" vertex="1">
          <mxGeometry x="30" y="404" width="260" height="130" as="geometry" />
        </mxCell>
        <mxCell id="lYBS7tri8tgWxixySMel-10" value="Private&amp;nbsp;Microservices Subnet AZ2" style="points=[[0,0],[0.25,0],[0.5,0],[0.75,0],[1,0],[1,0.25],[1,0.5],[1,0.75],[1,1],[0.75,1],[0.5,1],[0.25,1],[0,1],[0,0.75],[0,0.5],[0,0.25]];outlineConnect=0;gradientColor=none;html=1;whiteSpace=wrap;fontSize=12;fontStyle=0;container=1;pointerEvents=0;collapsible=0;recursiveResize=0;shape=mxgraph.aws4.group;grIcon=mxgraph.aws4.group_security_group;grStroke=0;strokeColor=#147EBA;fillColor=#E6F2F8;verticalAlign=top;align=left;spacingLeft=30;fontColor=#147EBA;dashed=0;" parent="lYBS7tri8tgWxixySMel-1" vertex="1">
          <mxGeometry x="490" y="250" width="260" height="130" as="geometry" />
        </mxCell>
        <mxCell id="lYBS7tri8tgWxixySMel-11" value="Private&amp;nbsp;Data Subnet AZ2" style="points=[[0,0],[0.25,0],[0.5,0],[0.75,0],[1,0],[1,0.25],[1,0.5],[1,0.75],[1,1],[0.75,1],[0.5,1],[0.25,1],[0,1],[0,0.75],[0,0.5],[0,0.25]];outlineConnect=0;gradientColor=none;html=1;whiteSpace=wrap;fontSize=12;fontStyle=0;container=1;pointerEvents=0;collapsible=0;recursiveResize=0;shape=mxgraph.aws4.group;grIcon=mxgraph.aws4.group_security_group;grStroke=0;strokeColor=#147EBA;fillColor=#E6F2F8;verticalAlign=top;align=left;spacingLeft=30;fontColor=#147EBA;dashed=0;" parent="lYBS7tri8tgWxixySMel-1" vertex="1">
          <mxGeometry x="490" y="547" width="260" height="130" as="geometry" />
        </mxCell>
        <mxCell id="lYBS7tri8tgWxixySMel-47" value="EFS" style="outlineConnect=0;dashed=0;verticalLabelPosition=bottom;verticalAlign=top;align=center;html=1;shape=mxgraph.aws3.efs;fillColor=#E05243;gradientColor=none;labelBackgroundColor=none;strokeColor=#6666FF;" parent="lYBS7tri8tgWxixySMel-11" vertex="1">
          <mxGeometry x="161.67000000000007" y="41" width="70" height="60" as="geometry" />
        </mxCell>
        <mxCell id="lYBS7tri8tgWxixySMel-12" value="Private XDX Subnet AZ2" style="points=[[0,0],[0.25,0],[0.5,0],[0.75,0],[1,0],[1,0.25],[1,0.5],[1,0.75],[1,1],[0.75,1],[0.5,1],[0.25,1],[0,1],[0,0.75],[0,0.5],[0,0.25]];outlineConnect=0;gradientColor=none;html=1;whiteSpace=wrap;fontSize=12;fontStyle=0;container=1;pointerEvents=0;collapsible=0;recursiveResize=0;shape=mxgraph.aws4.group;grIcon=mxgraph.aws4.group_security_group;grStroke=0;strokeColor=#147EBA;fillColor=#E6F2F8;verticalAlign=top;align=left;spacingLeft=30;fontColor=#147EBA;dashed=0;" parent="lYBS7tri8tgWxixySMel-1" vertex="1">
          <mxGeometry x="490" y="404" width="260" height="130" as="geometry" />
        </mxCell>
        <mxCell id="lYBS7tri8tgWxixySMel-19" value="Network ECS" style="outlineConnect=0;dashed=0;verticalLabelPosition=bottom;verticalAlign=top;align=center;html=1;shape=mxgraph.aws3.ecs;fillColor=#F58534;gradientColor=none;strokeColor=#6666FF;" parent="lYBS7tri8tgWxixySMel-12" vertex="1">
          <mxGeometry x="170" y="40" width="53.33" height="50" as="geometry" />
        </mxCell>
        <mxCell id="lYBS7tri8tgWxixySMel-13" value="Internet&#xa;gateway" style="sketch=0;outlineConnect=0;fontColor=#232F3E;gradientColor=none;strokeColor=#6666FF;fillColor=#ffffff;dashed=0;verticalLabelPosition=bottom;verticalAlign=top;align=center;html=1;fontSize=12;fontStyle=0;aspect=fixed;shape=mxgraph.aws4.resourceIcon;resIcon=mxgraph.aws4.internet_gateway;" parent="lYBS7tri8tgWxixySMel-1" vertex="1">
          <mxGeometry x="360" y="-30" width="60" height="60" as="geometry" />
        </mxCell>
        <mxCell id="lYBS7tri8tgWxixySMel-16" value="ECS" style="outlineConnect=0;dashed=0;verticalLabelPosition=bottom;verticalAlign=top;align=center;html=1;shape=mxgraph.aws3.ecs;fillColor=#F58534;gradientColor=none;strokeColor=#6666FF;" parent="lYBS7tri8tgWxixySMel-1" vertex="1">
          <mxGeometry x="70" y="290" width="53.33" height="50" as="geometry" />
        </mxCell>
        <mxCell id="lYBS7tri8tgWxixySMel-17" value="ECS" style="outlineConnect=0;dashed=0;verticalLabelPosition=bottom;verticalAlign=top;align=center;html=1;shape=mxgraph.aws3.ecs;fillColor=#F58534;gradientColor=none;strokeColor=#6666FF;" parent="lYBS7tri8tgWxixySMel-1" vertex="1">
          <mxGeometry x="660" y="290" width="53.33" height="50" as="geometry" />
        </mxCell>
        <mxCell id="lYBS7tri8tgWxixySMel-18" value="Network ECS" style="outlineConnect=0;dashed=0;verticalLabelPosition=bottom;verticalAlign=top;align=center;html=1;shape=mxgraph.aws3.ecs;fillColor=#F58534;gradientColor=none;strokeColor=#6666FF;" parent="lYBS7tri8tgWxixySMel-1" vertex="1">
          <mxGeometry x="70" y="450" width="53.33" height="50" as="geometry" />
        </mxCell>
        <mxCell id="lYBS7tri8tgWxixySMel-20" value="Postgres DB" style="image;html=1;image=img/lib/clip_art/computers/Database_128x128.png;strokeColor=#6666FF;" parent="lYBS7tri8tgWxixySMel-1" vertex="1">
          <mxGeometry x="56.66" y="590" width="63.34" height="60" as="geometry" />
        </mxCell>
        <mxCell id="lYBS7tri8tgWxixySMel-23" value="Postgres DB" style="image;html=1;image=img/lib/clip_art/computers/Database_128x128.png;strokeColor=#6666FF;" parent="lYBS7tri8tgWxixySMel-1" vertex="1">
          <mxGeometry x="559.37" y="587.5" width="63.34" height="60" as="geometry" />
        </mxCell>
        <mxCell id="lYBS7tri8tgWxixySMel-26" style="edgeStyle=orthogonalEdgeStyle;rounded=0;orthogonalLoop=1;jettySize=auto;html=1;" parent="lYBS7tri8tgWxixySMel-1" source="lYBS7tri8tgWxixySMel-25" target="lYBS7tri8tgWxixySMel-13" edge="1">
          <mxGeometry relative="1" as="geometry" />
        </mxCell>
        <mxCell id="lYBS7tri8tgWxixySMel-38" style="edgeStyle=orthogonalEdgeStyle;rounded=0;orthogonalLoop=1;jettySize=auto;html=1;entryX=0.931;entryY=0.129;entryDx=0;entryDy=0;entryPerimeter=0;" parent="lYBS7tri8tgWxixySMel-1" source="lYBS7tri8tgWxixySMel-25" target="lYBS7tri8tgWxixySMel-4" edge="1">
          <mxGeometry relative="1" as="geometry" />
        </mxCell>
        <mxCell id="lYBS7tri8tgWxixySMel-39" style="edgeStyle=orthogonalEdgeStyle;rounded=0;orthogonalLoop=1;jettySize=auto;html=1;entryX=0.103;entryY=0.129;entryDx=0;entryDy=0;entryPerimeter=0;" parent="lYBS7tri8tgWxixySMel-1" source="lYBS7tri8tgWxixySMel-25" target="lYBS7tri8tgWxixySMel-3" edge="1">
          <mxGeometry relative="1" as="geometry" />
        </mxCell>
        <mxCell id="lYBS7tri8tgWxixySMel-25" value="ALB" style="sketch=0;outlineConnect=0;fontColor=#232F3E;gradientColor=none;fillColor=#4D27AA;strokeColor=none;dashed=0;verticalLabelPosition=bottom;verticalAlign=top;align=center;html=1;fontSize=12;fontStyle=0;aspect=fixed;pointerEvents=1;shape=mxgraph.aws4.application_load_balancer;" parent="lYBS7tri8tgWxixySMel-1" vertex="1">
          <mxGeometry x="365" y="100" width="50" height="50" as="geometry" />
        </mxCell>
        <mxCell id="lYBS7tri8tgWxixySMel-29" style="edgeStyle=orthogonalEdgeStyle;rounded=0;orthogonalLoop=1;jettySize=auto;html=1;entryX=0.069;entryY=0.652;entryDx=0;entryDy=0;entryPerimeter=0;" parent="lYBS7tri8tgWxixySMel-1" edge="1">
          <mxGeometry relative="1" as="geometry">
            <mxPoint x="381" y="405" as="sourcePoint" />
            <mxPoint x="493.0100000000002" y="470.31999999999994" as="targetPoint" />
            <Array as="points">
              <mxPoint x="453" y="405" />
              <mxPoint x="453" y="470" />
            </Array>
          </mxGeometry>
        </mxCell>
        <mxCell id="lYBS7tri8tgWxixySMel-30" style="edgeStyle=orthogonalEdgeStyle;rounded=0;orthogonalLoop=1;jettySize=auto;html=1;entryX=0.931;entryY=0.652;entryDx=0;entryDy=0;entryPerimeter=0;" parent="lYBS7tri8tgWxixySMel-1" source="lYBS7tri8tgWxixySMel-27" target="lYBS7tri8tgWxixySMel-4" edge="1">
          <mxGeometry relative="1" as="geometry" />
        </mxCell>
        <mxCell id="lYBS7tri8tgWxixySMel-36" style="edgeStyle=orthogonalEdgeStyle;rounded=0;orthogonalLoop=1;jettySize=auto;html=1;entryX=0.931;entryY=0.439;entryDx=0;entryDy=0;entryPerimeter=0;" parent="lYBS7tri8tgWxixySMel-1" source="lYBS7tri8tgWxixySMel-27" target="lYBS7tri8tgWxixySMel-4" edge="1">
          <mxGeometry relative="1" as="geometry" />
        </mxCell>
        <mxCell id="lYBS7tri8tgWxixySMel-37" style="edgeStyle=orthogonalEdgeStyle;rounded=0;orthogonalLoop=1;jettySize=auto;html=1;entryX=0.069;entryY=0.439;entryDx=0;entryDy=0;entryPerimeter=0;" parent="lYBS7tri8tgWxixySMel-1" edge="1">
          <mxGeometry relative="1" as="geometry">
            <mxPoint x="418" y="405" as="sourcePoint" />
            <mxPoint x="493.0100000000002" y="329.74" as="targetPoint" />
            <Array as="points">
              <mxPoint x="453" y="405" />
              <mxPoint x="453" y="330" />
            </Array>
          </mxGeometry>
        </mxCell>
        <mxCell id="lYBS7tri8tgWxixySMel-27" value="NLB" style="sketch=0;outlineConnect=0;fontColor=#232F3E;gradientColor=none;fillColor=#4D27AA;strokeColor=none;dashed=0;verticalLabelPosition=bottom;verticalAlign=top;align=center;html=1;fontSize=12;fontStyle=0;aspect=fixed;pointerEvents=1;shape=mxgraph.aws4.network_load_balancer;" parent="lYBS7tri8tgWxixySMel-1" vertex="1">
          <mxGeometry x="365" y="380" width="50" height="50" as="geometry" />
        </mxCell>
        <mxCell id="lYBS7tri8tgWxixySMel-42" style="edgeStyle=orthogonalEdgeStyle;rounded=0;orthogonalLoop=1;jettySize=auto;html=1;" parent="lYBS7tri8tgWxixySMel-1" source="lYBS7tri8tgWxixySMel-2" target="lYBS7tri8tgWxixySMel-7" edge="1">
          <mxGeometry relative="1" as="geometry" />
        </mxCell>
        <mxCell id="lYBS7tri8tgWxixySMel-2" value="NAT Gateway" style="outlineConnect=0;dashed=0;verticalLabelPosition=bottom;verticalAlign=top;align=center;html=1;shape=mxgraph.aws3.vpc_nat_gateway;fillColor=#F58534;gradientColor=none;" parent="lYBS7tri8tgWxixySMel-1" vertex="1">
          <mxGeometry x="62.16" y="130" width="47.92" height="50" as="geometry" />
        </mxCell>
        <mxCell id="lYBS7tri8tgWxixySMel-43" style="edgeStyle=orthogonalEdgeStyle;rounded=0;orthogonalLoop=1;jettySize=auto;html=1;" parent="lYBS7tri8tgWxixySMel-1" source="lYBS7tri8tgWxixySMel-41" target="lYBS7tri8tgWxixySMel-10" edge="1">
          <mxGeometry relative="1" as="geometry" />
        </mxCell>
        <mxCell id="lYBS7tri8tgWxixySMel-41" value="NAT Gateway" style="outlineConnect=0;dashed=0;verticalLabelPosition=bottom;verticalAlign=top;align=center;html=1;shape=mxgraph.aws3.vpc_nat_gateway;fillColor=#F58534;gradientColor=none;" parent="lYBS7tri8tgWxixySMel-1" vertex="1">
          <mxGeometry x="670" y="130" width="47.92" height="50" as="geometry" />
        </mxCell>
        <mxCell id="lYBS7tri8tgWxixySMel-46" value="EFS" style="outlineConnect=0;dashed=0;verticalLabelPosition=bottom;verticalAlign=top;align=center;html=1;shape=mxgraph.aws3.efs;fillColor=#E05243;gradientColor=none;labelBackgroundColor=none;strokeColor=#6666FF;" parent="lYBS7tri8tgWxixySMel-1" vertex="1">
          <mxGeometry x="150" y="590" width="70" height="60" as="geometry" />
        </mxCell>
        <mxCell id="qFPtzPu0HUTSvxiYBvmY-2" value="Bastion EC2" style="outlineConnect=0;dashed=0;verticalLabelPosition=bottom;verticalAlign=top;align=center;html=1;shape=mxgraph.aws3.ec2;fillColor=#F58534;gradientColor=none;labelBackgroundColor=none;strokeColor=#6666FF;" vertex="1" parent="lYBS7tri8tgWxixySMel-1">
          <mxGeometry x="164.33" y="128" width="49.67" height="55" as="geometry" />
        </mxCell>
      </root>
    </mxGraphModel>
  </diagram>
</mxfile>
